<svg width="34" height="16" viewBox="0 0 34 16" fill="none" xmlns="http://www.w3.org/2000/svg">
<path d="M13.4893 1.19926C13.7267 0.996607 13.9438 0.89528 14.1407 0.89528C14.3433 0.89528 14.5112 0.944496 14.6444 1.04293C14.7834 1.13557 14.8963 1.26006 14.9831 1.41639C15.151 1.71748 15.235 2.09962 15.235 2.56283C15.235 3.02025 15.1597 3.5211 15.0092 4.06537C14.8586 4.60385 14.656 5.1568 14.4012 5.72424C14.1465 6.28588 13.8512 6.85331 13.5153 7.42653C13.1795 7.99975 12.8234 8.56139 12.4471 9.11145C12.0765 9.66151 11.6972 10.1971 11.3093 10.7182C10.9214 11.2335 10.5479 11.717 10.1889 12.1686C9.82993 12.6203 9.49699 13.0314 9.19012 13.4019C8.88903 13.7725 8.63427 14.091 8.42582 14.3573C7.89892 15.4227 7.31702 15.9554 6.6801 15.9554C6.25742 15.9554 5.75368 15.7498 5.16888 15.3387C4.56092 14.9103 4.25694 14.5136 4.25694 14.1489C4.25694 13.8478 4.47986 13.5004 4.9257 13.1066C5.03571 13.0024 5.13414 12.9242 5.22099 12.8721C5.82317 11.7952 6.31533 10.3332 6.69747 8.48612C6.91171 7.43811 7.01882 6.47406 7.01882 5.59396C7.01882 4.16959 6.72063 3.19975 6.12425 2.68443C5.84633 2.44703 5.53366 2.32833 5.18625 2.32833C4.83885 2.32833 4.52328 2.4065 4.23957 2.56283C3.95585 2.71917 3.6924 2.9334 3.44922 3.20554C2.89916 3.82508 2.62413 4.51989 2.62413 5.28998C2.62413 5.92689 2.92232 6.52906 3.5187 7.09649C3.29868 7.39758 2.95706 7.65234 2.49385 7.86079C2.36068 7.91869 2.2275 7.94764 2.09433 7.94764C1.96116 7.94764 1.80772 7.90711 1.63402 7.82605C1.4661 7.74499 1.31267 7.62918 1.1737 7.47864C0.878408 7.13702 0.73076 6.7404 0.73076 6.28877C0.73076 5.83714 0.794451 5.41736 0.921833 5.02942C1.04343 4.64148 1.21423 4.27092 1.43426 3.91772C1.65428 3.56452 1.91194 3.23738 2.20724 2.9363C2.50253 2.63521 2.8181 2.37176 3.15392 2.14594C3.8719 1.67695 4.56092 1.44245 5.22099 1.44245C5.88686 1.44245 6.4485 1.56404 6.90592 1.80722C7.36913 2.05041 7.76575 2.38334 8.09579 2.80602C8.43161 3.22291 8.70664 3.71507 8.92088 4.2825C9.37251 5.46947 9.59832 6.86199 9.59832 8.46007C9.59832 9.0275 9.56937 9.58914 9.51147 10.145C10.8316 8.90011 11.8391 7.76236 12.5339 6.73172C13.4661 5.34788 13.9322 4.05089 13.9322 2.84076C13.9322 2.15173 13.7846 1.60457 13.4893 1.19926ZM25.7006 8.3819C24.8379 7.96501 24.0649 7.64945 23.3817 7.43521C21.9052 9.21857 21.0338 10.9469 20.7675 12.6203C20.7269 12.8924 20.7067 13.1674 20.7067 13.4454C20.7067 13.7175 20.7327 13.9925 20.7848 14.2704C20.2058 14.6989 19.6094 15.0174 18.9957 15.2258C18.7814 15.3011 18.6077 15.3387 18.4746 15.3387C18.3414 15.3387 18.2024 15.304 18.0577 15.2345C17.9187 15.165 17.7913 15.0579 17.6755 14.9131C17.3976 14.5889 17.2586 14.1575 17.2586 13.6191C17.2586 13.0806 17.3542 12.5363 17.5453 11.9862C17.7421 11.4362 18.0114 10.8803 18.353 10.3187C18.9957 9.2591 19.9221 8.15608 21.1322 7.00964C20.6574 6.98069 20.1855 6.96622 19.7165 6.96622C19.2475 6.96622 18.7583 7.02701 18.2488 7.1486C17.1718 7.40337 16.5291 7.88974 16.3206 8.60771C16.2801 8.7351 16.2598 8.90301 16.2598 9.11145C16.2598 9.31411 16.3293 9.57756 16.4683 9.9018C16.3525 10.116 16.0832 10.2029 15.6606 10.1624C15.2205 10.1218 14.876 10.0031 14.627 9.80627C14.158 9.4357 13.9235 9.0275 13.9235 8.58166C13.9235 7.71314 14.5315 7.01543 15.7474 6.48853C16.8765 5.99637 18.2516 5.75029 19.8729 5.75029C20.5966 5.75029 21.3899 5.84293 22.2526 6.02822C24.4239 4.2217 26.6502 2.89866 28.9315 2.05909C30.0316 1.65378 31.0044 1.45113 31.8497 1.45113C32.2435 1.45113 32.5359 1.54088 32.7269 1.72037C32.9238 1.89407 33.0222 2.11699 33.0222 2.38913C33.0222 2.65547 32.9499 2.98841 32.8051 3.38792C32.6661 3.78744 32.4895 4.23328 32.2753 4.72544C32.0611 5.21181 31.8295 5.73582 31.5805 6.29746C31.3373 6.8591 31.1086 7.43232 30.8944 8.01712C30.3964 9.3778 30.1474 10.53 30.1474 11.4738C30.1474 12.1628 30.4514 12.5074 31.0594 12.5074C31.2331 12.5074 31.4242 12.4639 31.6326 12.3771C31.7426 12.4523 31.8324 12.5537 31.9018 12.6811C31.9713 12.8027 32.0061 12.9098 32.0061 13.0024C32.0061 13.0951 31.9684 13.2282 31.8932 13.4019C31.8237 13.5756 31.7223 13.7522 31.5892 13.9317C31.456 14.1054 31.2939 14.2733 31.1028 14.4355C30.9175 14.5976 30.712 14.7423 30.4862 14.8697C29.6408 15.3503 28.726 15.4227 27.7416 15.0869C26.9252 14.8147 26.3433 14.2531 25.9959 13.4019C25.8222 12.9619 25.7354 12.461 25.7354 11.8994C25.7354 11.3378 25.8222 10.8109 25.9959 10.3187C26.1696 9.82074 26.3954 9.33437 26.6734 8.85958C26.9571 8.379 27.2784 7.91579 27.6374 7.46996C28.0022 7.02412 28.3728 6.59854 28.7491 6.19324C29.1313 5.78214 29.5018 5.39709 29.8608 5.03811C30.2256 4.67912 30.547 4.34619 30.8249 4.03931C31.456 3.36187 31.7716 2.89576 31.7716 2.641C31.7716 2.50783 31.65 2.44124 31.4068 2.44124C30.353 2.44124 29.1515 2.83497 27.8024 3.62242C26.4997 4.38672 25.278 5.37393 24.1373 6.58407C25.0579 6.9141 25.6167 7.2123 25.8135 7.47864C26.0394 7.77973 26.0017 8.08081 25.7006 8.3819Z" fill="white"/>
</svg>
