<svg width="70" height="34" viewBox="0 0 70 34" fill="none" xmlns="http://www.w3.org/2000/svg">
<path d="M27.6816 1.5166C28.1888 1.08366 28.6527 0.867188 29.0732 0.867188C29.5062 0.867188 29.8649 0.972331 30.1494 1.18262C30.4463 1.38053 30.6875 1.64648 30.873 1.98047C31.2318 2.6237 31.4111 3.4401 31.4111 4.42969C31.4111 5.4069 31.2503 6.47689 30.9287 7.63965C30.6071 8.79004 30.1742 9.97135 29.6299 11.1836C29.0856 12.3835 28.4548 13.5957 27.7373 14.8203C27.0199 16.0449 26.2591 17.2448 25.4551 18.4199C24.6634 19.5951 23.8532 20.7393 23.0244 21.8525C22.1956 22.9535 21.3978 23.9863 20.6309 24.9512C19.8639 25.916 19.1527 26.7943 18.4971 27.5859C17.8538 28.3776 17.3096 29.0579 16.8643 29.627C15.7386 31.903 14.4954 33.041 13.1348 33.041C12.2318 33.041 11.1556 32.6019 9.90625 31.7236C8.60742 30.8083 7.95801 29.9609 7.95801 29.1816C7.95801 28.5384 8.43424 27.7962 9.38672 26.9551C9.62174 26.7324 9.83203 26.5654 10.0176 26.4541C11.304 24.1533 12.3555 21.0299 13.1719 17.084C13.6296 14.8451 13.8584 12.7855 13.8584 10.9053C13.8584 7.8623 13.2214 5.79036 11.9473 4.68945C11.3535 4.18229 10.6855 3.92871 9.94336 3.92871C9.20117 3.92871 8.52702 4.0957 7.9209 4.42969C7.31478 4.76367 6.75195 5.22135 6.23242 5.80273C5.05729 7.1263 4.46973 8.61068 4.46973 10.2559C4.46973 11.6165 5.10677 12.903 6.38086 14.1152C5.91081 14.7585 5.18099 15.3027 4.19141 15.748C3.9069 15.8717 3.6224 15.9336 3.33789 15.9336C3.05339 15.9336 2.72559 15.847 2.35449 15.6738C1.99577 15.5007 1.66797 15.2533 1.37109 14.9316C0.740234 14.2018 0.424805 13.3545 0.424805 12.3896C0.424805 11.4248 0.560872 10.528 0.833008 9.69922C1.09277 8.87044 1.45768 8.07878 1.92773 7.32422C2.39779 6.56966 2.94824 5.87077 3.5791 5.22754C4.20996 4.58431 4.88411 4.02148 5.60156 3.53906C7.13542 2.53711 8.60742 2.03613 10.0176 2.03613C11.4401 2.03613 12.64 2.2959 13.6172 2.81543C14.6068 3.33496 15.4541 4.04622 16.1592 4.94922C16.8766 5.83984 17.4642 6.89128 17.9219 8.10352C18.8867 10.6393 19.3691 13.6143 19.3691 17.0283C19.3691 18.2406 19.3073 19.4404 19.1836 20.6279C22.0039 17.9684 24.1562 15.5378 25.6406 13.3359C27.6322 10.3796 28.6279 7.60872 28.6279 5.02344C28.6279 3.55143 28.3125 2.38249 27.6816 1.5166ZM53.7695 16.8613C51.9264 15.9707 50.2751 15.2965 48.8154 14.8389C45.6611 18.6488 43.7995 22.3411 43.2305 25.916C43.1439 26.4974 43.1006 27.085 43.1006 27.6787C43.1006 28.2601 43.1562 28.8477 43.2676 29.4414C42.0306 30.3568 40.7565 31.0371 39.4453 31.4824C38.9876 31.6432 38.6165 31.7236 38.332 31.7236C38.0475 31.7236 37.7507 31.6494 37.4414 31.501C37.1445 31.3525 36.8724 31.1237 36.625 30.8145C36.0312 30.1217 35.7344 29.2002 35.7344 28.0498C35.7344 26.8994 35.9385 25.7367 36.3467 24.5615C36.7673 23.3864 37.3424 22.1989 38.0723 20.999C39.4453 18.7354 41.4245 16.3789 44.0098 13.9297C42.9954 13.8678 41.9873 13.8369 40.9854 13.8369C39.9834 13.8369 38.9382 13.9668 37.8496 14.2266C35.5488 14.7708 34.1758 15.8099 33.7305 17.3438C33.6439 17.6159 33.6006 17.9746 33.6006 18.4199C33.6006 18.8529 33.749 19.4157 34.0459 20.1084C33.7985 20.5661 33.2233 20.7516 32.3203 20.665C31.3802 20.5785 30.6442 20.3249 30.1123 19.9043C29.1104 19.1126 28.6094 18.2406 28.6094 17.2881C28.6094 15.4326 29.9082 13.9421 32.5059 12.8164C34.918 11.765 37.8558 11.2393 41.3193 11.2393C42.8656 11.2393 44.5602 11.4372 46.4033 11.833C51.042 7.97363 55.7982 5.14714 60.6719 3.35352C63.0221 2.48763 65.1003 2.05469 66.9062 2.05469C67.7474 2.05469 68.3721 2.24642 68.7803 2.62988C69.2008 3.00098 69.4111 3.47721 69.4111 4.05859C69.4111 4.6276 69.2565 5.33887 68.9473 6.19238C68.6504 7.0459 68.2731 7.99837 67.8154 9.0498C67.3577 10.0889 66.863 11.2083 66.3311 12.4082C65.8115 13.6081 65.3229 14.8327 64.8652 16.082C63.8014 18.9889 63.2695 21.4505 63.2695 23.4668C63.2695 24.9388 63.9189 25.6748 65.2178 25.6748C65.5889 25.6748 65.9971 25.582 66.4424 25.3965C66.6774 25.5573 66.8691 25.7738 67.0176 26.0459C67.166 26.3057 67.2402 26.5345 67.2402 26.7324C67.2402 26.9303 67.1598 27.2148 66.999 27.5859C66.8506 27.957 66.6341 28.3343 66.3496 28.7178C66.0651 29.0889 65.7188 29.4476 65.3105 29.7939C64.9147 30.1403 64.4756 30.4495 63.9932 30.7217C62.1872 31.7484 60.2327 31.903 58.1299 31.1855C56.3857 30.6042 55.1426 29.4043 54.4004 27.5859C54.0293 26.6458 53.8438 25.5758 53.8438 24.376C53.8438 23.1761 54.0293 22.0505 54.4004 20.999C54.7715 19.9352 55.2539 18.8962 55.8477 17.8818C56.4538 16.8551 57.1403 15.8656 57.9072 14.9131C58.6865 13.9606 59.4782 13.0514 60.2822 12.1855C61.0986 11.3073 61.8903 10.4847 62.6572 9.71777C63.4365 8.95085 64.123 8.23958 64.7168 7.58398C66.0651 6.13672 66.7393 5.14095 66.7393 4.59668C66.7393 4.31217 66.4795 4.16992 65.96 4.16992C63.7087 4.16992 61.1419 5.01107 58.2598 6.69336C55.4766 8.32617 52.8665 10.4352 50.4297 13.0205C52.3965 13.7256 53.5902 14.3626 54.0107 14.9316C54.4932 15.5749 54.4128 16.2181 53.7695 16.8613Z" fill="white"/>
</svg>
