<svg width="40" height="40" viewBox="0 0 40 40" fill="none" xmlns="http://www.w3.org/2000/svg">
<path d="M20 40C31.0457 40 40 31.0457 40 20C40 8.9543 31.0457 0 20 0C8.9543 0 0 8.9543 0 20C0 31.0457 8.9543 40 20 40Z" fill="url(#paint0_linear)"/>
<path d="M32.2594 16.0166C32.1215 15.5923 31.7549 15.2831 31.3135 15.219L24.222 14.1885L21.0506 7.76258C20.8532 7.36258 20.4458 7.10938 19.9997 7.10938C19.5537 7.10938 19.1463 7.36258 18.9489 7.76266L15.7775 14.1886L8.686 15.2191C8.24459 15.2832 7.87779 15.5924 7.73998 16.0166C7.60217 16.4409 7.71717 16.9066 8.03654 17.2179L13.168 22.2198L11.9566 29.2826C11.8812 29.7222 12.0619 30.1666 12.4228 30.4288C12.7837 30.6909 13.2621 30.7255 13.6569 30.518L19.9997 27.1834L26.3426 30.518C26.7404 30.727 27.2185 30.689 27.5767 30.4288C27.9376 30.1666 28.1183 29.7223 28.043 29.2826L26.8315 22.2198L31.963 17.2179C32.2823 16.9065 32.3972 16.4408 32.2594 16.0166Z" fill="url(#paint1_linear)"/>
<defs>
<linearGradient id="paint0_linear" x1="20" y1="40" x2="20" y2="0" gradientUnits="userSpaceOnUse">
<stop stop-color="#FD5900"/>
<stop offset="1" stop-color="#FFDE00"/>
</linearGradient>
<linearGradient id="paint1_linear" x1="19.9997" y1="30.6526" x2="19.9997" y2="7.10938" gradientUnits="userSpaceOnUse">
<stop stop-color="#FFE59A"/>
<stop offset="1" stop-color="#FFFFD5"/>
</linearGradient>
</defs>
</svg>
